<svg t="1564372617486" class="icon" viewBox="0 0 1024 1024" version="1.1" xmlns="http://www.w3.org/2000/svg" p-id="8932" height="200" width="200"><path d="M663.596 931.396c-146.768 0-265.72-122.897-265.72-274.487 0-151.549 118.953-274.405 265.72-274.405 146.744 0 265.719 122.858 265.719 274.405 0 151.591-118.975 274.487-265.719 274.487zM665.195 437.392c-117.402 0-212.569 98.293-212.569 219.517 0 121.305 95.167 219.557 212.569 219.557 117.381 0 212.565-98.252 212.565-219.557 0.001-121.223-95.184-219.517-212.565-219.517zM677.434 792.109c-0.038 0.084-0.101 0.084-0.162 0.163-0.959 1.47-1.595 3.148-2.842 4.456-10.379 10.709-27.2 10.709-37.598 0l-93.942-97.068c-10.36-10.709-10.36-28.036 0-38.745 10.382-10.749 27.201-10.749 37.582 0l70.644 72.912 113.619-178.972c9.053-11.933 25.769-14.017 37.315-4.7 11.567 9.36 13.589 26.607 4.537 38.541l-129.153 203.413zM738.269 212.687c0-20.843-16.37-37.724-36.54-37.724h-14.28c-2.824 1.063-5.805 1.717-8.974 1.717-14.672 0-26.566-12.301-26.566-27.466 0-15.119 11.894-27.423 26.566-27.423 3.169 0 6.149 0.696 8.974 1.718h27.564c40.358 0 73.076 33.8 73.076 75.489v153.997c-15.962-6.864-32.676-12.178-49.822-16.347v-123.959zM585.475 204.145c-14.67 0-26.564-12.342-26.564-27.464v-54.89c0-15.161 11.894-27.423 26.564-27.423 14.676 0 26.565 12.262 26.565 27.423v54.889c0 15.122-11.89 27.465-26.565 27.465zM439.323 204.145c-14.651 0-26.565-12.342-26.565-27.464v-54.89c0-15.161 11.914-27.423 26.565-27.423 14.673 0 26.586 12.262 26.586 27.423v54.889c0 15.122-11.912 27.465-26.586 27.465zM166.962 840.46c-40.359 0-73.057-33.801-73.057-75.489v-565.973c0-41.69 32.696-75.489 73.057-75.489h24.257c2.821-1.021 5.803-1.717 8.971-1.717 14.652 0 26.567 12.304 26.567 27.423 0 15.165-11.914 27.466-26.567 27.466-3.168 0-6.15-0.654-8.971-1.718h-10.954c-20.191 0-36.538 16.882-36.538 37.724v538.592c0 20.845 16.347 37.722 36.538 37.722h192.93c7.663 18.026 16.697 35.313 27.241 51.457h-233.474zM293.19 204.145c-14.672 0-26.586-12.342-26.586-27.464v-54.89c0-15.161 11.913-27.423 26.586-27.423 14.671 0 26.565 12.262 26.565 27.423v54.889c0.001 15.122-11.893 27.465-26.565 27.465z" p-id="8933" fill="#1296db"></path></svg>