<svg t="1564372890836" class="icon" viewBox="0 0 1024 1024" version="1.1" xmlns="http://www.w3.org/2000/svg" p-id="9107" height="200" width="200"><path d="M903.32416 211.77984H475.21664c-10.7136 0-19.39584-8.68608-19.39584-19.39968s8.68224-19.39456 19.39584-19.39456h428.10752c10.7136 0 19.39968 8.68096 19.39968 19.39456s-8.68608 19.39968-19.39968 19.39968z m0 304.53504H475.21664c-10.7136 0-19.39584-8.68608-19.39584-19.39968 0-10.7136 8.68224-19.39456 19.39584-19.39456h428.10752c10.7136 0 19.39968 8.68224 19.39968 19.39456 0 10.7136-8.68608 19.39968-19.39968 19.39968z m0 302.59712H475.21664c-10.7136 0-19.39584-8.68608-19.39584-19.39968s8.68224-19.39456 19.39584-19.39456h428.10752c10.7136 0 19.39968 8.68096 19.39968 19.39456s-8.68608 19.39968-19.39968 19.39968zM354.95424 109.9456c-7.57632-7.57632-19.85792-7.57632-27.42912 0l-122.41408 122.40896-50.64192-50.64192c-7.57504-7.57632-19.85664-7.57632-27.42784 0-7.57632 7.57504-7.57632 19.85792 0 27.43296l61.87264 63.81184a19.36 19.36 0 0 0 3.70688 2.87872c7.53024 4.98432 17.77024 4.16128 24.40704-2.47168l137.9264-135.99232c7.57504-7.57376 7.57504-19.85152 0-27.42656z m0.97152 303.32288c-7.57504-7.57632-19.85792-7.57632-27.43296 0l-122.40896 122.40896-50.64192-50.64192c-7.57632-7.57504-19.85792-7.57504-27.43424 0-7.57504 7.57632-7.57504 19.85792 0 27.43296l61.87904 63.81312a19.3216 19.3216 0 0 0 3.70176 2.87744c7.53408 4.98432 17.77536 4.16128 24.40576-2.47168l137.93152-135.99232c7.57632-7.57376 7.57632-19.85152 0-27.42656z m-113.47328 502.62912c-63.6416 0-115.41248-51.776-115.41248-115.41248 0-63.6416 51.77088-115.4176 115.41248-115.4176 63.63648 0 115.41248 51.776 115.41248 115.4176 0 63.63648-51.776 115.41248-115.41248 115.41248z m0-192.03584c-42.2464 0-76.62208 34.37056-76.62208 76.62208 0 42.2464 34.37568 76.61824 76.62208 76.61824 42.2464 0 76.61824-34.37056 76.61824-76.61824-0.00128-42.25024-34.37184-76.62208-76.61824-76.62208z m0 0" p-id="9108" fill="#1296db"></path></svg>