<svg t="1564367825984" class="icon" viewBox="0 0 1024 1024" version="1.1" xmlns="http://www.w3.org/2000/svg" p-id="3181" height="200" width="200"><path d="M811.930131 366.821426c-11.259571 0-20.396734-9.29218-20.396733-20.740429v-82.958173c0-11.449135-9.138048-20.740429-20.398505-20.74043H689.543529c-11.258685 0-20.396734-9.291294-20.396733-20.740429S678.284844 200.902422 689.543529 200.902422h81.590478c33.737965 0 61.193744 27.916401 61.193744 62.220402v82.958173c0 11.448249-9.137163 20.740429-20.39762 20.740429zM212.069869 366.821426c-11.258685 0-20.397619-9.29218-20.39762-20.740429v-82.958173c0-34.304 27.454893-62.220401 61.192858-62.220402h81.590478c11.260457 0 20.398505 9.291294 20.398505 20.740429s-9.138048 20.740429-20.398505 20.740429H252.864221c-11.258685 0-20.396734 9.291294-20.396733 20.740429v82.958173c0 11.447363-9.138048 20.739543-20.397619 20.739544zM334.455585 823.098464H252.864221c-33.73708 0-61.192858-27.916401-61.192858-62.220402v-82.959059c0-11.448249 9.138048-20.738657 20.39762-20.738657s20.397619 9.290408 20.397619 20.738657v82.959059c0 11.450021 9.138048 20.739543 20.396734 20.739544h81.590477c11.260457 0 20.398505 9.29218 20.398505 20.740429s-9.136277 20.740429-20.396733 20.740429zM771.134007 823.098464H689.543529c-11.258685 0-20.396734-9.29218-20.396733-20.740429s9.138048-20.740429 20.396733-20.740429h81.590478c11.260457 0 20.398505-9.289522 20.398505-20.739544v-82.959059c0-11.448249 9.137163-20.738657 20.396734-20.738657 11.260457 0 20.397619 9.290408 20.397619 20.738657v82.959059c0.000886 34.304-27.454893 62.220401-61.192858 62.220402z" p-id="3182" fill="#8a8a8a"></path></svg>