<svg t="1564379733562" class="icon" viewBox="0 0 1024 1024" version="1.1" xmlns="http://www.w3.org/2000/svg" p-id="10681" height="200" width="200"><path d="M77.312 170.496l398.336 120.832 8.192 2.56 8.192-2.56 398.336-120.832c14.848-4.608 23.552-20.48 18.944-35.84s-20.48-24.064-35.328-19.456L475.648 236.032H491.52L93.696 115.2c-14.848-4.608-30.72 4.096-35.328 19.456-4.608 14.848 3.584 31.232 18.944 35.84z m36.352 116.736v510.464c0 6.144 7.168 15.36 12.8 16.896l345.088 94.72c-5.632-1.536-16.896 7.168-16.896 13.312V412.16c0-6.144-7.168-15.36-12.8-16.896L96.768 300.032c6.144 1.536 16.896-6.656 16.896-12.8z m-56.832 0c0-31.744 24.576-51.2 54.784-42.496l345.088 94.72c30.208 8.192 54.784 40.448 54.784 72.704v510.464c0 31.744-24.576 51.2-54.784 42.496L111.616 870.4c-30.208-8.192-54.784-40.448-54.784-72.704V287.232z m796.672 0c0 6.144 11.264 14.848 16.896 13.312l-345.088 94.72c-5.632 1.536-12.8 10.752-12.8 16.896v510.464c0-6.144-11.264-14.848-16.896-13.312l345.088-94.72c5.632-1.536 12.8-10.752 12.8-16.896V287.232z m56.832 0v510.464c0 32.256-24.576 64.512-54.784 72.704l-345.088 94.72c-30.208 8.192-54.784-10.752-54.784-42.496V412.16c0-32.256 24.576-64.512 54.784-72.704l345.088-94.72c30.208-8.704 54.784 10.24 54.784 42.496z" fill="#1296db" p-id="10682"></path><path d="M385.024 831.488l-212.48-60.928c-9.216-2.56-15.872-11.264-15.36-20.992l3.072-342.016c0-13.824 13.312-24.064 27.136-20.48L391.68 440.32c9.216 2.56 15.872 10.752 15.872 20.48l5.12 349.184c0 15.36-13.824 25.6-27.648 21.504z" fill="#1296db" p-id="10683"></path></svg>