<svg t="1564379765256" class="icon" viewBox="0 0 1024 1024" version="1.1" xmlns="http://www.w3.org/2000/svg" p-id="11538" height="200" width="200"><path d="M810.892416 213.468783m-63.932275 0a63.932275 63.932275 0 1 0 127.86455 0 63.932275 63.932275 0 1 0-127.86455 0Z" p-id="11539" fill="#1296db"></path><path d="M511.458201 235.50194c-153.5097 0-277.762257 124.252557-277.762257 277.762258S357.948501 791.026455 511.458201 791.026455c57.791887 0 111.249383-17.698765 155.676896-47.678307l108.359788 120.279365c11.197178 12.641975 30.70194 13.725573 43.343916 2.167196l1.805996-1.805996c13.003175-11.558377 13.725573-31.063139 2.528395-43.343916l-107.63739-119.195767c45.87231-49.484303 73.684656-115.583774 73.684657-188.184832 0-153.5097-124.252557-277.762257-277.762258-277.762258z m0.722399 490.869841c-117.75097-0.361199-213.468783-95.717813-213.468783-213.468783s95.356614-213.468783 213.468783-213.468783c117.75097 0 213.468783 95.356614 213.468783 213.468783s-95.356614 213.468783-213.468783 213.468783z" p-id="11540" fill="#1296db"></path><path d="M897.219048 0H127.142152C57.069489 0 0 57.069489 0 127.142152v769.715696c0 70.072663 57.069489 127.142152 127.142152 127.142152h769.715696c70.072663 0 127.142152-57.069489 127.142152-127.142152v-769.354497C1024.361199 57.430688 966.930511 0 897.219048 0z m62.848677 512.541799h-127.86455v1.083598c0 69.711464-22.394356 134.004938-60.320283 186.378836l80.547443 89.577425c27.451146 30.70194 24.922751 78.019048-5.417989 105.470194-30.70194 27.451146-78.019048 24.922751-105.470194-5.41799l-83.075838-92.10582c-43.705115 22.394356-93.550617 35.036332-146.285714 35.036332-176.626455 0-320.022575-142.673721-320.022575-318.938977v-1.083598H63.932275V127.86455c0-35.036332 28.534744-63.932275 63.932275-63.932275h768.632099c35.036332 0 63.932275 28.534744 63.932275 63.932275l-0.361199 384.677249z" p-id="11541" fill="#1296db"></path></svg>