<svg t="1564379789876" class="icon" viewBox="0 0 1024 1024" version="1.1" xmlns="http://www.w3.org/2000/svg" p-id="12345" height="200" width="200"><path d="M902.723 82.99H287.708c-35.637 0-64.624 28.986-64.624 64.602v732.267c0 7.645 1.569 14.869 4.021 21.695H178.83c-11.865 0-21.54-9.654-21.54-21.54V253.223c0-11.886 9.677-21.54 21.54-21.54V188.6c-35.637 0-64.624 28.986-64.624 64.602v626.791c0 35.637 28.986 64.602 64.624 64.602l723.892-0.154c35.637 0 64.624-28.986 64.624-64.602V147.596c-0.021-35.637-29.01-64.602-64.624-64.602z m21.54 796.866c0 11.886-9.677 21.54-21.54 21.54H287.708c-11.886 0-21.54-9.654-21.54-21.54V147.589c0-11.886 9.677-21.54 21.54-21.54h615.015c11.865 0 21.54 9.654 21.54 21.54v732.267z" p-id="12346" fill="#1296db"></path><path d="M808.649 613.166H381.781c-8.175 0-14.825 6.871-14.825 15.31v8.794c0 8.463 6.65 15.31 14.825 15.31h426.89c8.175 0 14.825-6.871 14.825-15.31v-8.794c-0.021-8.441-6.673-15.31-14.848-15.31zM808.649 723.478H381.781c-8.175 0-14.825 6.871-14.825 15.31v8.794c0 8.463 6.65 15.31 14.825 15.31h426.89c8.175 0 14.825-6.871 14.825-15.31v-8.794c-0.021-8.441-6.673-15.31-14.848-15.31zM411.166 549.339h174.848c24.37 0 44.187-19.819 44.187-44.187V328.405c0-24.37-19.819-44.187-44.187-44.187H411.166c-24.37 0-44.187 19.819-44.187 44.187v176.747c0 24.37 19.819 44.187 44.187 44.187z m0-220.936h174.848l-0.066 176.747H411.167V328.403zM678.827 334.478h125.491c10.54 0 19.133-8.617 19.133-19.133s-8.617-19.133-19.133-19.133H678.827c-10.54 0-19.133 8.617-19.133 19.133s8.617 19.133 19.133 19.133zM678.827 440.97h125.491c10.54 0 19.133-8.617 19.133-19.133s-8.617-19.133-19.133-19.133H678.827c-10.54 0-19.133 8.617-19.133 19.133s8.617 19.133 19.133 19.133zM678.827 547.46h125.491c10.54 0 19.133-8.617 19.133-19.133s-8.617-19.133-19.133-19.133H678.827c-10.54 0-19.133 8.617-19.133 19.133s8.617 19.133 19.133 19.133z" p-id="12347" fill="#1296db"></path></svg>