<svg t="1564368054500" class="icon" viewBox="0 0 1287 1024" version="1.1" xmlns="http://www.w3.org/2000/svg" p-id="4055" width="200" height="200"><path d="M643.657143 222.354286c-179.931429 0-321.828571 137.508571-321.828572 311.588571s141.897143 311.588571 321.828572 311.588572 321.828571-137.508571 321.828571-311.588572-141.897143-311.588571-321.828571-311.588571z m0 557.348571c-137.508571 0-253.074286-111.177143-253.074286-244.297143S506.148571 291.108571 643.657143 291.108571s253.074286 111.177143 253.074286 244.297143S781.165714 779.702857 643.657143 779.702857z m367.177143-441.782857c0 39.497143 33.645714 71.68 73.142857 71.68s73.142857-32.182857 73.142857-71.68-33.645714-71.68-73.142857-71.68-73.142857 32.182857-73.142857 71.68z" p-id="4056" fill="#ffffff"></path><path d="M1149.805714 133.12h-137.508571L980.114286 39.497143C969.874286 17.554286 942.08 0 920.137143 0H367.177143c-27.794286 0-51.2 17.554286-59.977143 39.497143l-32.182857 93.622857H137.508571c-77.531429 0-137.508571 58.514286-137.508571 133.12v623.177143C0 965.485714 64.365714 1024 137.508571 1024h1010.834286c77.531429 0 137.508571-58.514286 137.508572-133.12V267.702857c1.462857-76.068571-58.514286-134.582857-136.045715-134.582857z m68.754286 757.76c0 35.108571-32.182857 67.291429-68.754286 67.291429H137.508571c-36.571429 0-68.754286-30.72-68.754285-67.291429V267.702857c0-35.108571 32.182857-67.291429 68.754285-67.291428h188.708572l13.165714-43.885715 32.182857-89.234285h542.72l32.182857 89.234285 13.165715 43.885715h188.708571c36.571429 0 68.754286 30.72 68.754286 67.291428v623.177143h1.462857z" p-id="4057" fill="#ffffff"></path></svg>