<svg t="1564987393644" class="icon" viewBox="0 0 1024 1024" version="1.1" xmlns="http://www.w3.org/2000/svg" p-id="13133" height="200" width="200"><path d="M668.928 326.656c0-107.392-87.168-194.49344-194.49856-194.49344-107.392 0-194.49344 87.10144-194.49344 194.49344 0 66.432 33.46944 124.928 84.224 160-90.112 29.63456-159.744 103.168-184.064 195.39456a206.85824 206.85824 0 0 0-8.576 35.38944c-5.57056 24.77056-5.82656 45.25056-4.93056 58.69056-0.384 1.98144-1.21344 3.84-1.21344 5.94944 0 4.80256 1.09056 9.344 2.944 13.568 0.128 1.85856 0.256 3.2 0.256 3.2l1.408-0.768c5.69344 10.30656 16.31744 17.60256 28.98944 17.60256a33.55648 33.55648 0 0 0 33.60256-33.60256c0-1.34656-0.57344-2.432-0.768-3.712 3.01056-17.408 14.592-79.04256 34.688-120.064 32.70656-61.50144 92.35456-124.16 201.728-136.25344 3.968-0.19456 7.35744-0.896 11.45344-0.96256l0.32256-0.256c4.096-0.31744 7.74144-1.08544 12.032-1.28l-1.09056-0.512c99.456-8.51456 177.98656-90.69056 177.98656-192.384z m-196.096 136.96c-72.12544 0-130.62144-58.42944-130.62144-130.49856 0-72.05888 58.496-130.56 130.62144-130.56 72.00256 0 130.56 58.50112 130.56 130.62656 0 72.064-58.496 130.432-130.56 130.432z m204.22656 98.048c-0.512-0.512-1.024-0.896-1.47456-1.34656-0.256-0.18944-0.512-0.44544-0.768-0.64l-0.06656 0.128c-5.94944-5.18144-13.50144-8.63744-22.016-8.63744-18.688 0-33.792 15.104-33.792 33.792 0 12.98944 7.55712 23.936 18.37056 29.62944 48.64 40.192 80.32256 100.03456 80.32256 167.936 0 7.552-1.34656 14.72-2.176 22.016h2.048c2.74944 15.872 16 28.16 32.70144 28.16 18.688 0 33.792-15.104 33.792-33.792 0-1.92-0.83456-3.584-1.09056-5.376 0.45056-3.712 1.09056-7.22944 1.09056-11.008 0-89.66144-42.24-168.57088-106.94144-220.86144zM247.04 505.984v-0.96256c15.488-1.72544 27.71456-14.39744 27.71456-30.336 0-15.93344-12.16-28.60544-27.71456-30.336v-0.128C191.42656 433.86368 149.31456 385.22368 149.31456 326.656c0-54.84544 37.12-100.608 87.48544-114.688 0.768 0.06656 1.34656 0.45056 2.176 0.45056a26.5728 26.5728 0 0 0 26.56256-26.56256c0-12.544-8.89856-22.58944-20.54656-25.344v-0.70656c-0.57856 0.13312-1.09056 0.19456-1.664 0.32256-1.47456-0.18944-2.816-0.82944-4.352-0.82944-1.34656 0-2.49344 0.57344-3.77344 0.768-0.06656-0.06656-0.19456-0.06656-0.32256-0.06656v-0.70656c-3.328 0.45056-6.58944 1.60256-9.984 2.304-0.18944 0.06656-0.384 0-0.57344 0.06656-77.76256 15.36-136.83712 82.688-136.83712 164.992 0 61.312 32.90112 114.56 81.60256 144.19456C71.168 503.168 0 594.24256 0 702.976c0 6.272 1.09056 12.16 1.85856 18.23744 0 0.38912-0.19456 0.768-0.19456 1.15712 0 1.28 0.57856 2.304 0.70656 3.51744 0 0.256 0.06144 0.512 0.06144 0.768h0.06656c0 0.18944 0.06144 0.32256 0.06144 0.512-0.06656 0.18944-0.18944 0.45056-0.18944 0.64 0 10.94656 7.48544 19.712 17.536 22.4 3.712 1.664 7.808 2.62656 12.09344 2.62656s8.38656-0.96256 12.09344-2.62656c10.05056-2.688 17.54112-11.45344 17.54112-22.4 0-0.18944-0.128-0.45056-0.19456-0.64 0-0.18944 0.06656-0.32256 0.06656-0.512h0.384c-0.06656-0.45056-0.06656-0.96256-0.128-1.34656 0.06144-1.024 0.57344-1.85344 0.57344-2.87744 0-3.13344-0.896-5.94944-1.73056-8.76544-0.44544-3.52256-1.08544-6.97856-1.08544-10.69056-0.128-105.856 83.13856-191.42144 187.52-196.992z m600.13056-392.64256c-93.568 0-169.66656 65.21856-169.66656 145.47456 0 44.09344 23.808 85.56544 65.408 113.85344 0.64 0.384 1.408 0.128 2.11456 0.384 0.768 0.70656 1.34144 1.28 1.92 1.792 13.824 12.16 28.22144 23.36256 28.22144 23.36256-1.21344 6.784-6.46656 22.97344-12.48256 37.82144-1.72544 4.54656-0.768 9.92256 2.88256 13.312 2.176 2.24256 5.248 3.39456 8.38656 3.39456 1.59744 0 3.328-0.32256 4.864-1.09056 13.75744-6.20544 55.93088-26.112 71.03488-47.54944 92.35456-1.34656 166.912-65.92 166.912-145.34656 0.128-80.128-76.032-145.408-169.6-145.408z m32.768 193.152H797.44c-7.424 0-13.44-5.504-13.44-12.22144s6.016-12.032 13.44-12.032h82.49856c7.48544 0 13.568 5.376 13.568 12.032s-6.08256 12.22144-13.568 12.22144z m25.53344-43.58144h-108.032c-7.424 0-13.44-5.376-13.44-12.09856s6.016-12.09344 13.44-12.09344h108.032c7.49056 0 13.63456 5.43744 13.63456 12.09344s-6.08256 12.09856-13.63456 12.09856z m0-42.88h-108.032c-7.424 0-13.44-5.376-13.44-12.09856s6.016-12.09344 13.44-12.09344h108.032c7.49056 0 13.63456 5.43744 13.63456 12.09344s-6.08256 12.09856-13.63456 12.09856z" fill="#1296db" p-id="13134"></path></svg>